<svg xmlns="http://www.w3.org/2000/svg" xmlns:xlink="http://www.w3.org/1999/xlink" fill="none" version="1.1" width="12.25" height="14" viewBox="0 0 12.25 14"><defs><clipPath id="master_svg0_5_334"><rect x="0" y="0" width="12.25" height="14" rx="0"/></clipPath></defs><g clip-path="url(#master_svg0_5_334)"><g transform="matrix(1,0,0,-1,0,28.4375)"><g><path d="M4.15625,27.56255Q4.10156,28.16405,3.5,28.21875Q2.89844,28.16405,2.84375,27.56255L2.84375,26.46875L1.75,26.46875Q1.01172,26.44145,0.519531,25.94925Q0.0273438,25.457050000000002,0,24.71875L0,24.28125L0,22.96875L0,15.96875Q0.0273438,15.23047,0.519531,14.738281Q1.01172,14.2460938,1.75,14.21875L10.5,14.21875Q11.2383,14.2460938,11.7305,14.738281Q12.2227,15.23047,12.25,15.96875L12.25,22.96875L12.25,24.28125L12.25,24.71875Q12.2227,25.457050000000002,11.7305,25.94925Q11.2383,26.44145,10.5,26.46875L9.40625,26.46875L9.40625,27.56255Q9.35156,28.16405,8.75,28.21875Q8.14844,28.16405,8.09375,27.56255L8.09375,26.46875L4.15625,26.46875L4.15625,27.56255ZM1.3125,22.96875L10.9375,22.96875L1.3125,22.96875L10.9375,22.96875L10.9375,15.96875Q10.9102,15.55859,10.5,15.53125L1.75,15.53125Q1.33984,15.55859,1.3125,15.96875L1.3125,22.96875Z" fill="#4B5563" fill-opacity="1" style="mix-blend-mode:passthrough"/></g></g></g></svg>