<svg xmlns="http://www.w3.org/2000/svg" xmlns:xlink="http://www.w3.org/1999/xlink" fill="none" version="1.1" width="16" height="15" viewBox="0 0 16 15"><defs><clipPath id="master_svg0_2_183"><rect x="0" y="0" width="16" height="15" rx="0"/></clipPath></defs><g clip-path="url(#master_svg0_2_183)"><g><path d="M13,1.875L12.375,1.875L12.375,0.625L11.125,0.625L11.125,1.875L4.875,1.875L4.875,0.625L3.625,0.625L3.625,1.875L3,1.875C2.3125,1.875,1.75,2.4375,1.75,3.125L1.75,13.125C1.75,13.8125,2.3125,14.375,3,14.375L13,14.375C13.6875,14.375,14.25,13.8125,14.25,13.125L14.25,3.125C14.25,2.4375,13.6875,1.875,13,1.875ZM13,13.125L3,13.125L3,5L13,5L13,13.125Z" fill="#000000" fill-opacity="1" style="mix-blend-mode:passthrough"/></g><g></g></g></svg>