<svg xmlns="http://www.w3.org/2000/svg" xmlns:xlink="http://www.w3.org/1999/xlink" fill="none" version="1.1" width="16" height="16" viewBox="0 0 16 16"><defs><clipPath id="master_svg0_5_314"><rect x="0" y="0" width="16" height="16" rx="0"/></clipPath></defs><g clip-path="url(#master_svg0_5_314)"><g transform="matrix(1,0,0,-1,0,32.625)"><g><path d="M16,24.25Q15.9688,26.5,14.9062,28.2813Q13.8438,30.0937,12.0312,31.1563Q10.25,32.2187,8,32.25Q5.75,32.2187,3.96875,31.1563Q2.15625,30.0937,1.09375,28.2813Q0.03125,26.5,0,24.25Q0.0625,21.375,1.71875,19.28125Q3.40625,17.1875,6.0625,16.46875L6.0625,21.8125L4.40625,21.8125L4.40625,24.25L6.0625,24.25L6.0625,25.3125Q6.03125,29.3437,9.96875,29.2813Q10.375,29.2813,10.9062,29.2187Q11.4062,29.1563,11.7188,29.0937L11.7188,26.875Q11.4062,26.9063,10.7812,26.9063Q9.8125,26.9063,9.375,26.5Q8.96875,26.0625,8.96875,25.125L8.96875,24.25L11.5938,24.25L11.125,21.8125L8.96875,21.8125L8.96875,16.3125Q12,16.75,13.9688,18.9375Q15.9375,21.125,16,24.25Z" fill="#9CA3AF" fill-opacity="1" style="mix-blend-mode:passthrough"/></g></g></g></svg>