<svg xmlns="http://www.w3.org/2000/svg" xmlns:xlink="http://www.w3.org/1999/xlink" fill="none" version="1.1" width="17.5" height="14" viewBox="0 0 17.5 14"><defs><clipPath id="master_svg0_5_354"><rect x="0" y="0" width="17.5" height="14" rx="0"/></clipPath></defs><g clip-path="url(#master_svg0_5_354)"><g transform="matrix(1,0,0,-1,0,25.1015625)"><g><path d="M5.25,23.05078125Q3.00781,22.99608125,1.53125,21.51953125Q0.0546875,20.04297125,0,17.80078125Q0.0546875,15.55859125,1.53125,14.08203125Q3.00781,12.60546875,5.25,12.55078125L12.25,12.55078125Q14.4922,12.60546875,15.9688,14.08203125Q17.4453,15.55859125,17.5,17.80078125Q17.4453,20.04297125,15.9688,21.51953125Q14.4922,22.99608125,12.25,23.05078125L5.25,23.05078125ZM13.5625,20.20703125Q14.1914,20.17969125,14.5195,19.66016125Q14.793,19.11328125,14.5195,18.56640125Q14.1914,18.04687125,13.5625,18.01953125Q12.9336,18.04687125,12.6055,18.56640125Q12.332,19.11328125,12.6055,19.66016125Q12.9336,20.17969125,13.5625,20.20703125ZM10.7188,16.48828125Q10.7461,17.11719125,11.2656,17.44531125Q11.8125,17.71875125,12.3594,17.44531125Q12.8789,17.11719125,12.9062,16.48828125Q12.8789,15.85937125,12.3594,15.53125125Q11.8125,15.25781125,11.2656,15.53125125Q10.7461,15.85937125,10.7188,16.48828125ZM4.59375,19.33203125Q4.64844,19.93359125,5.25,19.98828125Q5.85156,19.93359125,5.90625,19.33203125L5.90625,18.45703125L6.78125,18.45703125Q7.38281,18.40234125,7.4375,17.80078125Q7.38281,17.19922125,6.78125,17.14453125L5.90625,17.14453125L5.90625,16.26953125Q5.85156,15.66797125,5.25,15.61328125Q4.64844,15.66797125,4.59375,16.26953125L4.59375,17.14453125L3.71875,17.14453125Q3.11719,17.19922125,3.0625,17.80078125Q3.11719,18.40234125,3.71875,18.45703125L4.59375,18.45703125L4.59375,19.33203125Z" fill="#000000" fill-opacity="1" style="mix-blend-mode:passthrough"/></g></g></g></svg>