<svg xmlns="http://www.w3.org/2000/svg" xmlns:xlink="http://www.w3.org/1999/xlink" fill="none" version="1.1" width="14" height="16" viewBox="0 0 14 16"><defs><clipPath id="master_svg0_5_319"><rect x="0" y="0" width="14" height="16" rx="0"/></clipPath></defs><g clip-path="url(#master_svg0_5_319)"><g transform="matrix(1,0,0,-1,0,30.75)"><g><path d="M7,25.9688Q5.46875,25.9375,4.46875,24.90625Q3.4375,23.90625,3.40625,22.375Q3.4375,20.84375,4.46875,19.84375Q5.46875,18.8125,7,18.78125Q8.53125,18.8125,9.53125,19.84375Q10.5625,20.84375,10.5938,22.375Q10.5625,23.90625,9.53125,24.90625Q8.53125,25.9375,7,25.9688ZM7,20.03125Q6,20.0625,5.34375,20.71875Q4.6875,21.375,4.65625,22.375Q4.6875,23.375,5.34375,24.03125Q6,24.6875,7,24.71875Q8,24.6875,8.65625,24.03125Q9.3125,23.375,9.34375,22.375Q9.3125,21.375,8.65625,20.71875Q8,20.0625,7,20.03125ZM11.5938,26.125Q11.5,25.34375,10.75,25.28125Q9.96875,25.34375,9.90625,26.125Q9.90625,26.4688,10.1562,26.7188Q10.375,26.9375,10.75,26.9375Q11.0938,26.9375,11.3438,26.7188Q11.5625,26.4688,11.5938,26.125ZM13.9688,25.25Q13.9688,26.9688,12.8125,28.1875Q11.5938,29.3438,9.90625,29.3438Q9.28125,29.375,8.125,29.375Q7,29.375,5.875,29.375Q4.71875,29.375,4.125,29.3438Q2.4375,29.3438,1.1875,28.1875Q0.03125,26.9688,0.0625,25.28125Q0,24.65625,0,23.5Q0,22.375,0,21.25Q0,20.125,0.0625,19.5Q0.03125,17.78125,1.1875,16.5625Q2.40625,15.40625,4.125,15.4375Q4.71875,15.40625,5.875,15.375Q7,15.375,8.125,15.375Q9.28125,15.40625,9.90625,15.4375Q11.5938,15.40625,12.8125,16.5625Q13.9688,17.78125,13.9688,19.5Q14,20.125,14,21.25Q14,22.375,14,23.5Q14,24.65625,13.9688,25.28125L13.9688,25.25ZM12.4688,18.25Q12.0625,17.3125,11.125,16.90625Q10.5,16.6875,9.4375,16.65625Q8.375,16.625,7.5,16.625Q7.21875,16.625,7,16.625Q6.78125,16.625,6.5,16.625Q5.625,16.625,4.5625,16.65625Q3.53125,16.6875,2.875,16.90625Q1.9375,17.3125,1.53125,18.25Q1.3125,18.90625,1.28125,19.9375Q1.25,21,1.25,21.875Q1.25,22.15625,1.25,22.375Q1.25,22.59375,1.25,22.875Q1.25,23.75,1.28125,24.8125Q1.3125,25.875,1.53125,26.5Q1.9375,27.4375,2.875,27.8438Q3.53125,28.0625,4.5625,28.0938Q5.625,28.1562,6.5,28.125Q6.78125,28.125,7,28.125Q7.21875,28.125,7.5,28.125Q8.375,28.125,9.4375,28.0938Q10.5,28.0625,11.125,27.8438Q12.0625,27.4375,12.4688,26.5Q12.6875,25.875,12.7188,24.8125Q12.7812,23.75,12.75,22.875Q12.75,22.59375,12.75,22.375Q12.75,22.15625,12.75,21.875Q12.7812,21,12.7188,19.9375Q12.6875,18.875,12.4688,18.25Z" fill="#9CA3AF" fill-opacity="1" style="mix-blend-mode:passthrough"/></g></g></g></svg>