<svg xmlns="http://www.w3.org/2000/svg" xmlns:xlink="http://www.w3.org/1999/xlink" fill="none" version="1.1" width="12.25" height="14" viewBox="0 0 12.25 14"><defs><clipPath id="master_svg0_5_349"><rect x="0" y="0" width="12.25" height="14" rx="0"/></clipPath></defs><g clip-path="url(#master_svg0_5_349)"><g transform="matrix(1,0,0,-1,0,28.6015625)"><g><path d="M11.375,28.30078125Q11.1016,28.32808125,10.2812,27.91798125Q9.43359,27.53518125,8.69531,26.49608125Q7.92969,25.42968125,7.875,23.48828125L7.875,20.42578125Q7.90234,19.68750125,8.39453,19.19531125Q8.88672,18.70312125,9.625,18.67578125L10.5,18.67578125L10.5,15.17578125Q10.5,14.79296925,10.7461,14.54687525Q10.9922,14.30078125,11.375,14.30078125Q11.7578,14.30078125,12.0039,14.54687525Q12.25,14.79296925,12.25,15.17578125L12.25,18.67578125L12.25,21.73828125L12.25,27.42578125Q12.25,27.80858125,12.0039,28.05468125Q11.7578,28.30078125,11.375,28.30078125ZM1.75,27.86328125Q1.72266,28.21878125,1.36719,28.30078125Q0.984375,28.30078125,0.875,27.94528125L0.0546875,24.22656125Q0,23.98047125,0,23.70703125Q0.0273438,22.75000125,0.628906,22.09375125Q1.25781,21.41016125,2.1875,21.30078125L2.1875,15.17578125Q2.1875,14.79296925,2.43359,14.54687525Q2.67969,14.30078125,3.0625,14.30078125Q3.44531,14.30078125,3.69141,14.54687525Q3.9375,14.79296925,3.9375,15.17578125L3.9375,21.30078125Q4.86719,21.41016125,5.49609,22.09375125Q6.09766,22.75000125,6.125,23.70703125Q6.125,23.98047125,6.07031,24.22656125L5.25,27.94528125Q5.14062,28.30078125,4.75781,28.30078125Q4.40234,28.21878125,4.375,27.86328125L4.375,24.19922125Q4.34766,23.953121250000002,4.10156,23.92578125Q3.88281,23.953121250000002,3.82812,24.171871250000002L3.5,27.89058125Q3.44531,28.27348125,3.0625,28.30078125Q2.67969,28.27348125,2.625,27.89058125L2.29688,24.171871250000002Q2.24219,23.953121250000002,2.02344,23.92578125Q1.77734,23.953121250000002,1.75,24.19922125L1.75,27.86328125ZM3.0625,23.70703125L3.0625,23.734371250000002L3.0625,23.70703125Z" fill="#000000" fill-opacity="1" style="mix-blend-mode:passthrough"/></g></g></g></svg>