<svg xmlns="http://www.w3.org/2000/svg" xmlns:xlink="http://www.w3.org/1999/xlink" fill="none" version="1.1" width="17.5" height="14" viewBox="0 0 17.5 14"><defs><clipPath id="master_svg0_5_329"><rect x="0" y="0" width="17.5" height="14" rx="0"/></clipPath></defs><g clip-path="url(#master_svg0_5_329)"><g transform="matrix(1,0,0,-1,0,28.6015625)"><g><path d="M2.625,24.80078125Q2.625,25.75778125,3.08984,26.55078125Q3.55469,27.34378125,4.375,27.83598125Q5.19531,28.30078125,6.125,28.30078125Q7.05469,28.30078125,7.875,27.83598125Q8.69531,27.34378125,9.16016,26.55078125Q9.625,25.75778125,9.625,24.80078125Q9.625,23.84375125,9.16016,23.05078125Q8.69531,22.25781125,7.875,21.76562125Q7.05469,21.30078125,6.125,21.30078125Q5.19531,21.30078125,4.375,21.76562125Q3.55469,22.25781125,3.08984,23.05078125Q2.625,23.84375125,2.625,24.80078125ZM0,15.12109325Q0.0546875,17.17187125,1.42188,18.56640125Q2.81641,19.93359125,4.86719,19.98828125L7.38281,19.98828125Q9.43359,19.93359125,10.8281,18.56640125Q12.1953,17.17187125,12.25,15.12109325Q12.25,14.76562525,12.0039,14.54687525Q11.7852,14.30078125,11.4297,14.30078125L0.820312,14.30078125Q0.464844,14.30078125,0.246094,14.54687525Q0,14.76562525,0,15.12109325ZM13.7812,19.76953125L13.7812,21.51953125L13.7812,19.76953125L13.7812,21.51953125L12.0312,21.51953125Q11.4297,21.57422125,11.375,22.17578125Q11.4297,22.77734125,12.0312,22.83203125L13.7812,22.83203125L13.7812,24.58198125Q13.8359,25.18358125,14.4375,25.23828125Q15.0391,25.18358125,15.0938,24.58198125L15.0938,22.83203125L16.8438,22.83203125Q17.4453,22.77734125,17.5,22.17578125Q17.4453,21.57422125,16.8438,21.51953125L15.0938,21.51953125L15.0938,19.76953125Q15.0391,19.16797125,14.4375,19.11328125Q13.8359,19.16797125,13.7812,19.76953125Z" fill="#000000" fill-opacity="1" style="mix-blend-mode:passthrough"/></g></g></g></svg>