<svg xmlns="http://www.w3.org/2000/svg" xmlns:xlink="http://www.w3.org/1999/xlink" fill="none" version="1.1" width="36" height="46" viewBox="0 0 36 46"><defs><filter id="master_svg0_1_409" filterUnits="objectBoundingBox" color-interpolation-filters="sRGB" x="-0.13333333333333333" y="-0.075" width="1.2666666666666666" height="1.2"><feFlood flood-opacity="0" result="BackgroundImageFix"/><feColorMatrix in="SourceAlpha" type="matrix" values="0 0 0 0 0 0 0 0 0 0 0 0 0 0 0 0 0 0 127 0"/><feOffset dy="1" dx="0"/><feGaussianBlur stdDeviation="1"/><feColorMatrix type="matrix" values="0 0 0 0 0 0 0 0 0 0 0 0 0 0 0 0 0 0 0.05000000074505806 0"/><feBlend mode="normal" in2="BackgroundImageFix" result="effect1_dropShadow"/><feBlend mode="normal" in="SourceGraphic" in2="effect1_dropShadow" result="shape"/></filter><clipPath id="master_svg1_1_89"><rect x="11.5" y="13" width="13" height="16" rx="0"/></clipPath></defs><g filter="url(#master_svg0_1_409)"><rect x="3" y="2" width="30" height="40" rx="4" fill="#FFFFFF" fill-opacity="1" style="mix-blend-mode:passthrough"/><rect x="3" y="2" width="30" height="40" rx="4" fill="#000000" fill-opacity="0.0010000000474974513" style="mix-blend-mode:passthrough"/><g><rect x="11" y="13" width="14" height="16" rx="0" fill="#000000" fill-opacity="0" style="mix-blend-mode:passthrough"/><g clip-path="url(#master_svg1_1_89)"><g transform="matrix(1,0,0,-1,0,44.6875)"><g><path d="M24.5,23.34375Q24.5,22.90625,24.2188,22.625Q23.9375,22.34375,23.5,22.34375L12.5,22.34375Q12.0625,22.34375,11.78125,22.625Q11.5,22.90625,11.5,23.34375Q11.5,23.78125,11.78125,24.0625Q12.0625,24.34375,12.5,24.34375L23.5,24.34375Q23.9375,24.34375,24.2188,24.0625Q24.5,23.78125,24.5,23.34375Z" fill="#4B5563" fill-opacity="1" style="mix-blend-mode:passthrough"/></g></g></g></g></g></svg>