<svg xmlns="http://www.w3.org/2000/svg" xmlns:xlink="http://www.w3.org/1999/xlink" fill="none" version="1.1" width="14" height="14" viewBox="0 0 14 14"><defs><clipPath id="master_svg0_5_344"><rect x="0" y="0" width="14" height="14" rx="0"/></clipPath></defs><g clip-path="url(#master_svg0_5_344)"><g transform="matrix(1,0,0,-1,0,28.6015625)"><g><path d="M13.6445,28.136681250000002Q14,27.86328125,14,27.42578125L14,25.45698125L14,18.23828125Q13.9727,17.30859125,13.2344,16.67969125Q12.4961,16.07812125,11.375,16.05078125Q10.2539,16.07812125,9.51562,16.67969125Q8.77734,17.30859125,8.75,18.23828125Q8.77734,19.16797125,9.51562,19.79687125Q10.2539,20.39844125,11.375,20.42578125Q11.8398,20.42578125,12.25,20.28906125L12.25,24.28125125L5.25,22.17578125L5.25,16.48828125Q5.22266,15.55859125,4.48438,14.92968725Q3.74609,14.32812505,2.625,14.30078125Q1.50391,14.32812505,0.765625,14.92968725Q0.0273438,15.55859125,0,16.48828125Q0.0273438,17.41797125,0.765625,18.04687125Q1.50391,18.64844125,2.625,18.67578125Q3.08984,18.67578125,3.5,18.53906125L3.5,22.83203125L3.5,24.80078125Q3.52734,25.42968125,4.12891,25.64848125L12.8789,28.27348125Q13.2891,28.38278125,13.6445,28.136681250000002Z" fill="#000000" fill-opacity="1" style="mix-blend-mode:passthrough"/></g></g></g></svg>