<svg xmlns="http://www.w3.org/2000/svg" xmlns:xlink="http://www.w3.org/1999/xlink" fill="none" version="1.1" width="17.5" height="20" viewBox="0 0 17.5 20"><defs><clipPath id="master_svg0_5_324"><rect x="0" y="0" width="17.5" height="20" rx="0"/></clipPath></defs><g clip-path="url(#master_svg0_5_324)"><g transform="matrix(1,0,0,-1,0,40.859352111816406)"><g><path d="M8.749827856798172,40.4296760559082Q8.214897856798173,40.4296760559082,7.871007856798172,40.0780760559082Q7.527117856798172,39.726576055908204,7.527117856798172,39.1796760559082L7.527117856798172,38.437476055908206Q5.387387856798172,37.96877605590821,4.050047856798172,36.289076055908204Q2.674497856798172,34.6093760559082,2.636287856798172,32.3046760559082L2.636287856798172,31.562476055908203Q2.598077856798172,28.749986055908202,0.802230856798172,26.601556055908205L0.496553856798172,26.249986055908202Q-0.00017114320182801124,25.664056055908205,0.305505856798172,24.921866055908204Q0.6493928567981719,24.218736055908202,1.413587856798172,24.179676055908203L16.08605785679817,24.179676055908203Q16.850257856798173,24.218736055908202,17.19415785679817,24.921866055908204Q17.499857856798172,25.664056055908205,17.003057856798172,26.249986055908202L16.735657856798174,26.601556055908205Q14.901557856798172,28.710926055908203,14.863357856798173,31.562476055908203L14.863357856798173,32.3046760559082Q14.825157856798173,34.6093760559082,13.449657856798172,36.289076055908204Q12.112257856798172,37.96877605590821,9.972537856798173,38.437476055908206L9.972537856798173,39.1796760559082Q9.972537856798173,39.726576055908204,9.628647856798173,40.0780760559082Q9.284767856798172,40.4296760559082,8.749827856798172,40.4296760559082ZM10.469257856798173,21.171864055908202Q11.195257856798172,21.914056055908205,11.195257856798172,22.929676055908203L8.749827856798172,22.929676055908203L6.304417856798172,22.929676055908203Q6.304417856798172,21.914056055908205,7.030397856798172,21.171864055908202Q7.756377856798172,20.429676055908203,8.749827856798172,20.429676055908203Q9.743277856798173,20.429676055908203,10.469257856798173,21.171864055908202Z" fill="#6B7280" fill-opacity="1" style="mix-blend-mode:passthrough"/></g></g></g></svg>