<svg xmlns="http://www.w3.org/2000/svg" xmlns:xlink="http://www.w3.org/1999/xlink" fill="none" version="1.1" width="22.5" height="20" viewBox="0 0 22.5 20"><defs><clipPath id="master_svg0_2_173"><rect x="0" y="0" width="22.5" height="20" rx="0"/></clipPath></defs><g clip-path="url(#master_svg0_2_173)"><g transform="matrix(1,0,0,-1,0,38.359375)"><g><path d="M10,36.6796875L7.07031,36.6796875L10,36.6796875L7.07031,36.6796875Q6.25,36.6796875,5.625,36.2108875Q5,35.781287500000005,4.72656,34.9999875L0.117188,22.0312475Q0,21.6796875,0,21.3281275Q0.0390625,20.3906275,0.625,19.8046875Q1.21094,19.21875,2.14844,19.1796875L10,19.1796875L10,21.6796875Q10,22.2265675,10.3516,22.5781275Q10.7031,22.9296875,11.25,22.9296875Q11.7969,22.9296875,12.1484,22.5781275Q12.5,22.2265675,12.5,21.6796875L12.5,19.1796875L20.3516,19.1796875Q21.2891,19.21875,21.875,19.8046875Q22.4609,20.3906275,22.5,21.3281275Q22.5,21.6796875,22.3828,22.0312475L17.7734,34.9999875Q17.5,35.781287500000005,16.875,36.2108875Q16.25,36.6796875,15.4297,36.6796875L12.5,36.6796875L12.5,34.1796875Q12.5,33.6327875,12.1484,33.2812875Q11.7969,32.9296875,11.25,32.9296875Q10.7031,32.9296875,10.3516,33.2812875Q10,33.6327875,10,34.1796875L10,36.6796875ZM12.5,29.1796875L12.5,26.6796875L12.5,29.1796875L12.5,26.6796875Q12.5,26.1328075,12.1484,25.7812475Q11.7969,25.4296875,11.25,25.4296875Q10.7031,25.4296875,10.3516,25.7812475Q10,26.1328075,10,26.6796875L10,29.1796875Q10,29.7265875,10.3516,30.078087500000002Q10.7031,30.4296875,11.25,30.4296875Q11.7969,30.4296875,12.1484,30.078087500000002Q12.5,29.7265875,12.5,29.1796875Z" fill="#22C55E" fill-opacity="1" style="mix-blend-mode:passthrough"/></g></g></g></svg>