<svg xmlns="http://www.w3.org/2000/svg" xmlns:xlink="http://www.w3.org/1999/xlink" fill="none" version="1.1" width="14" height="14" viewBox="0 0 14 14"><defs><clipPath id="master_svg0_9_224"><rect x="0" y="0" width="14" height="14" rx="0"/></clipPath></defs><g clip-path="url(#master_svg0_9_224)"><g transform="matrix(1,0,0,-1,0,26.8515625)"><g><path d="M8.39453,25.59378125Q7.90234,25.34768125,7.875,24.80078125L7.875,23.05078125L4.8125,23.05078125Q2.76172,22.99609125,1.42188,21.62890125Q0.0546875,20.28906125,0,18.23828125Q0.0273438,16.70703125,0.601562,15.69531125Q1.14844,14.68359125,1.80469,14.13671925Q2.46094,13.61718725,2.73438,13.48046875Q2.84375,13.42578125,2.95312,13.42578125Q3.44531,13.48046875,3.5,13.97265625Q3.47266,14.27343725,3.22656,14.49219125Q3.03516,14.68359125,2.84375,15.06640125Q2.65234,15.42187125,2.625,16.05078125Q2.65234,17.17187125,3.39062,17.91016125Q4.12891,18.64844125,5.25,18.67578125L7.875,18.67578125L7.875,16.92578125Q7.90234,16.37890125,8.39453,16.13281125Q8.91406,15.91406125,9.32422,16.26953125L13.6992,20.20703125Q14,20.48047125,14,20.86328125Q14,21.24609125,13.6992,21.51953125L9.32422,25.45698125Q8.91406,25.812481249999998,8.39453,25.59378125Z" fill="#4B5563" fill-opacity="1" style="mix-blend-mode:passthrough"/></g></g></g></svg>