<svg xmlns="http://www.w3.org/2000/svg" xmlns:xlink="http://www.w3.org/1999/xlink" fill="none" version="1.1" width="25" height="20" viewBox="0 0 25 20"><defs><clipPath id="master_svg0_9_254"><rect x="0" y="0" width="25" height="20" rx="0"/></clipPath></defs><g clip-path="url(#master_svg0_9_254)"><g transform="matrix(1,0,0,-1,0,40.85934066772461)"><g><path d="M11.526498046875,40.3905703338623Q11.837998046875,40.2343703338623,11.915898046875,39.9218703338623L12.460998046875,36.601570333862306L15.770998046875,36.054670333862305Q16.082498046875,35.976570333862306,16.238298046875,35.664070333862306Q16.355098046875,35.351570333862306,16.160398046875,35.07807033386231L14.680698046875,32.929670333862305Q14.524898046875,32.929670333862305,14.408098046875,32.929670333862305Q13.045198046875,32.929670333862305,11.915898046875,32.26557033386231L11.915898046875,32.304670333862305Q11.876898046875,33.9062703338623,10.825498046875,34.9608703338623Q9.774128046875,36.01557033386231,8.177558046875,36.054670333862305Q6.580978046875,36.01557033386231,5.529578046875,34.9608703338623Q4.478178046875,33.9062703338623,4.439238046875,32.304670333862305Q4.478178046875,30.703070333862307,5.529578046875,29.648420333862305Q6.580978046875,28.593730333862304,8.177558046875,28.554670333862305Q8.644848046875,28.554670333862305,9.073188046875,28.671860333862305Q8.021788046874999,28.124980333862304,7.281918046875,27.148420333862305Q6.580978046875,26.210920333862305,6.386278046875,24.960920333862305L5.412758046875,24.296860333862305Q5.140168046875,24.101540333862303,4.828648046875,24.218730333862304Q4.517118046875,24.374980333862304,4.439238046875,24.726550333862306L3.894068046875,28.007790333862303L0.584096046875,28.554670333862305Q0.27257004687499997,28.632790333862303,0.116806446875,28.945290333862303Q-0.00001595312499999557,29.257790333862303,0.19468804687500002,29.531230333862304L2.141728046875,32.304670333862305L0.19468804687500002,35.07807033386231Q-0.00001595312499999557,35.351570333862306,0.116806446875,35.664070333862306Q0.27257004687499997,35.976570333862306,0.584096046875,36.054670333862305L3.894068046875,36.601570333862306L4.439238046875,39.9218703338623Q4.517118046875,40.2343703338623,4.828648046875,40.3905703338623Q5.140168046875,40.507770333862304,5.412758046875,40.31247033386231L8.177558046875,38.3593703338623L10.942398046875,40.31247033386231Q11.214898046875,40.507770333862304,11.526498046875,40.3905703338623ZM5.685338046875,32.304670333862305Q5.724288046875,33.7108703338623,6.931448046875,34.45307033386231Q8.177558046875,35.1562703338623,9.423658046875,34.45307033386231Q10.630798046875,33.7108703338623,10.669798046875,32.304670333862305Q10.630798046875,30.898470333862306,9.423658046875,30.156230333862304Q8.177558046875,29.453110333862305,6.931448046875,30.156230333862304Q5.724288046875,30.898470333862306,5.685338046875,32.304670333862305ZM24.999998046875,23.554670333862305Q24.960998046875,22.226550333862306,24.065398046875,21.367170333862305Q23.208698046875,20.468732833862305,21.884698046875,20.429670333862305L11.292798046875,20.429670333862305Q9.696248046875,20.468732833862305,8.644848046875,21.523420333862305Q7.593438046875,22.578110333862305,7.554498046875,24.179670333862305Q7.593438046875,25.624980333862304,8.450138046875,26.601540333862303Q9.306838046875,27.617170333862305,10.669798046875,27.890610333862305L10.669798046875,27.929670333862305Q10.708698046875,29.531230333862304,11.760098046875,30.585870333862303Q12.811498046875,31.640570333862307,14.408098046875,31.679670333862305Q15.420498046875,31.679670333862305,16.277198046875,31.171870333862305Q17.094998046875,30.703070333862307,17.601198046875,29.882790333862303Q18.380098046875,30.429670333862305,19.392498046875,30.429670333862305Q20.716498046875,30.390610333862305,21.612098046875,29.531230333862304Q22.468798046875,28.632790333862303,22.507798046875,27.304670333862305Q22.507798046875,26.953110333862305,22.429898046875,26.640610333862305Q23.559198046875,26.406230333862304,24.260098046875,25.585920333862305Q24.960998046875,24.726550333862306,24.999998046875,23.554670333862305Z" fill="#EAB308" fill-opacity="1" style="mix-blend-mode:passthrough"/></g></g></g></svg>