<svg xmlns="http://www.w3.org/2000/svg" xmlns:xlink="http://www.w3.org/1999/xlink" fill="none" version="1.1" width="14" height="14" viewBox="0 0 14 14"><defs><clipPath id="master_svg0_2_123"><rect x="0" y="0" width="14" height="14" rx="0"/></clipPath></defs><g clip-path="url(#master_svg0_2_123)"><g transform="matrix(1,0,0,-1,0,28.6015625)"><g><path d="M9.505803359375,27.61718125Q9.669233359375,28.027381249999998,10.023313359375,28.19138125Q10.404643359375,28.35548125,10.813243359375,28.27348125L13.210043359375,27.61718125Q13.945543359375,27.34378125,13.999943359375,26.55078125Q13.972743359375,23.13281125,12.338443359375,20.37109125Q10.704243359375,17.60937125,7.953273359375,15.96875125Q5.202303359375,14.32812505,1.797633359375,14.30078125Q1.0077503593750001,14.35546875,0.735377359375,15.09375025L0.081680759375,17.50000125Q-0.0000313406250000009,17.91016125,0.16339235937500002,18.29297125Q0.326817359375,18.64844125,0.735377359375,18.81250125L3.350163359375,19.90625125Q4.085573359375,20.15234125,4.603083359375,19.57812125L5.692573359375,18.23828125Q7.136153359375,18.92187125,8.280123359375,20.04297125Q9.396853359375,21.19140125,10.077743359375,22.640621250000002L8.743163359375,23.734371250000002Q8.171173359375,24.25390125,8.416313359375,24.99218125L9.505803359375,27.61718125Z" fill="#DC2626" fill-opacity="1" style="mix-blend-mode:passthrough"/></g></g></g></svg>