<svg xmlns="http://www.w3.org/2000/svg" xmlns:xlink="http://www.w3.org/1999/xlink" fill="none" version="1.1" width="14" height="16" viewBox="0 0 14 16"><defs><clipPath id="master_svg0_2_153"><rect x="0" y="0" width="14" height="16" rx="0"/></clipPath></defs><g clip-path="url(#master_svg0_2_153)"><g transform="matrix(1,0,0,-1,0,32.6875)"><g><path d="M3,31.34375L3,30.34375L3,31.34375L3,30.34375L1.5,30.34375Q0.875,30.31255,0.4375,29.90625Q0.03125,29.46875,0,28.84375L0,27.34375L14,27.34375L14,28.84375Q13.9688,29.46875,13.5625,29.90625Q13.125,30.31255,12.5,30.34375L11,30.34375L11,31.34375Q11,31.78125,10.7188,32.06255Q10.4375,32.34375,10,32.34375Q9.5625,32.34375,9.28125,32.06255Q9,31.78125,9,31.34375L9,30.34375L5,30.34375L5,31.34375Q5,31.78125,4.71875,32.06255Q4.4375,32.34375,4,32.34375Q3.5625,32.34375,3.28125,32.06255Q3,31.78125,3,31.34375ZM14,26.34375L0,26.34375L14,26.34375L0,26.34375L0,17.84375Q0.03125,17.21875,0.4375,16.78125Q0.875,16.375,1.5,16.34375L12.5,16.34375Q13.125,16.375,13.5625,16.78125Q13.9688,17.21875,14,17.84375L14,26.34375Z" fill="#9CA3AF" fill-opacity="1" style="mix-blend-mode:passthrough"/></g></g></g></svg>