<svg xmlns="http://www.w3.org/2000/svg" xmlns:xlink="http://www.w3.org/1999/xlink" fill="none" version="1.1" width="16" height="16" viewBox="0 0 16 16"><defs><clipPath id="master_svg0_2_178"><rect x="0" y="0" width="16" height="16" rx="0"/></clipPath></defs><g clip-path="url(#master_svg0_2_178)"><g transform="matrix(1,0,0,-1,0,32.70170593261719)"><g><path d="M15.5019,32.170452966308595Q16,31.826752966308593,15.9377,31.201752966308593L13.9455,18.201702966308595Q13.8521,17.732952966308595,13.4475,17.482952966308595Q13.0117,17.264204966308593,12.5759,17.451702966308595L8.84047,18.982952966308595L6.72374,16.670454966308593Q6.22568,16.201704966308593,5.60311,16.420455266308593Q5.01167,16.701704966308593,4.98054,17.357952966308595L4.98054,19.982952966308595Q4.98054,20.170452966308595,5.10506,20.295452966308595L10.3346,26.014202966308595Q10.5837,26.357952966308595,10.3035,26.701752966308593Q9.99222,26.982952966308595,9.61868,26.732952966308595L3.29961,21.076702966308595L0.560311,22.451702966308595Q0.0311284,22.732952966308595,0,23.326702966308595Q0,23.920452966308595,0.498054,24.232952966308595L14.4436,32.232952966308595Q15.0039,32.51425296630859,15.5019,32.170452966308595Z" fill="#000000" fill-opacity="1" style="mix-blend-mode:passthrough"/></g></g></g></svg>