<svg xmlns="http://www.w3.org/2000/svg" xmlns:xlink="http://www.w3.org/1999/xlink" fill="none" version="1.1" width="12.25" height="14" viewBox="0 0 12.25 14"><defs><clipPath id="master_svg0_2_128"><rect x="0" y="0" width="12.25" height="14" rx="0"/></clipPath></defs><g clip-path="url(#master_svg0_2_128)"><g transform="matrix(1,0,0,-1,0,26.8515625)"><g><path d="M1.75,25.67578125Q1.01172,25.64848125,0.519531,25.15628125Q0.0273438,24.664081250000002,0,23.92578125L0,15.17578125Q0.0273438,14.43750125,0.519531,13.94531225Q1.01172,13.45312505,1.75,13.42578125L10.5,13.42578125Q11.2383,13.45312505,11.7305,13.94531225Q12.2227,14.43750125,12.25,15.17578125L12.25,21.82031125Q12.25,22.53125125,11.7305,23.05078125L9.625,25.15628125Q9.10547,25.67578125,8.39453,25.67578125L1.75,25.67578125ZM1.75,23.05078125Q1.75,23.43358125,1.99609,23.67968125Q2.24219,23.92578125,2.625,23.92578125L7.875,23.92578125Q8.25781,23.92578125,8.50391,23.67968125Q8.75,23.43358125,8.75,23.05078125L8.75,21.30078125Q8.75,20.91797125,8.50391,20.67187125Q8.25781,20.42578125,7.875,20.42578125L2.625,20.42578125Q2.24219,20.42578125,1.99609,20.67187125Q1.75,20.91797125,1.75,21.30078125L1.75,23.05078125ZM6.125,18.67578125Q7.10938,18.64844125,7.62891,17.80078125Q8.12109,16.92578125,7.62891,16.05078125Q7.10938,15.20312125,6.125,15.17578125Q5.14062,15.20312125,4.62109,16.05078125Q4.12891,16.92578125,4.62109,17.80078125Q5.14062,18.64844125,6.125,18.67578125Z" fill="#4B5563" fill-opacity="1" style="mix-blend-mode:passthrough"/></g></g></g></svg>