<svg xmlns="http://www.w3.org/2000/svg" xmlns:xlink="http://www.w3.org/1999/xlink" fill="none" version="1.1" width="20" height="16" viewBox="0 0 20 16"><defs><clipPath id="master_svg0_2_158"><rect x="0" y="0" width="20" height="16" rx="0"/></clipPath></defs><g clip-path="url(#master_svg0_2_158)"><g transform="matrix(1,0,0,-1,0,32.6875)"><g><path d="M4.5,32.34375Q5.90625,32.31255,6.65625,31.09375Q7.34375,29.84375,6.65625,28.59375Q5.90625,27.37495,4.5,27.34375Q3.09375,27.37495,2.34375,28.59375Q1.65625,29.84375,2.34375,31.09375Q3.09375,32.31255,4.5,32.34375ZM16,32.34375Q17.4062,32.31255,18.1562,31.09375Q18.8438,29.84375,18.1562,28.59375Q17.4062,27.37495,16,27.34375Q14.5938,27.37495,13.8438,28.59375Q13.1562,29.84375,13.8438,31.09375Q14.5938,32.31255,16,32.34375ZM0,23Q0.03125,24.4375,0.96875,25.375Q1.90625,26.3125,3.34375,26.34375L4.65625,26.34375Q5.40625,26.34375,6.0625,26.03125Q6,25.6875,6,25.34375Q6.0625,23.5,7.34375,22.34375L0.65625,22.34375Q0.0625,22.40625,0,23ZM12.6562,22.34375Q13.9375,23.5,14,25.34375Q14,25.6875,13.9375,26.03125Q14.5938,26.34375,15.3438,26.34375L16.6562,26.34375Q18.0938,26.3125,19.0312,25.375Q19.9688,24.4375,20,23Q19.9375,22.40625,19.3438,22.34375L12.6562,22.34375ZM7,25.34375Q7,26.15625,7.40625,26.84375Q7.8125,27.53125,8.5,27.93755Q9.21875,28.34375,10,28.34375Q10.7812,28.34375,11.5,27.93755Q12.1875,27.53125,12.5938,26.84375Q13,26.15625,13,25.34375Q13,24.53125,12.5938,23.84375Q12.1875,23.15625,11.5,22.75Q10.7812,22.34375,10,22.34375Q9.21875,22.34375,8.5,22.75Q7.8125,23.15625,7.40625,23.84375Q7,24.53125,7,25.34375ZM4,17.1875Q4.03125,18.9375,5.21875,20.125Q6.40625,21.3125,8.15625,21.34375L11.8438,21.34375Q13.5938,21.3125,14.7812,20.125Q15.9688,18.9375,16,17.1875Q15.9375,16.40625,15.1562,16.34375L4.84375,16.34375Q4.0625,16.40625,4,17.1875Z" fill="#9CA3AF" fill-opacity="1" style="mix-blend-mode:passthrough"/></g></g></g></svg>