<svg xmlns="http://www.w3.org/2000/svg" xmlns:xlink="http://www.w3.org/1999/xlink" fill="none" version="1.1" width="14" height="16" viewBox="0 0 14 16"><defs><clipPath id="master_svg0_2_148"><rect x="0" y="0" width="14" height="16" rx="0"/></clipPath></defs><g clip-path="url(#master_svg0_2_148)"><g transform="matrix(1,0,0,-1,0,32.6875)"><g><path d="M2,31.34375Q2,31.78125,1.71875,32.06255Q1.4375,32.34375,1,32.34375Q0.5625,32.34375,0.28125,32.06255Q0,31.78125,0,31.34375L0,30.34375L0,20.84375L0,17.34375Q0,16.90625,0.28125,16.625Q0.5625,16.34375,1,16.34375Q1.4375,16.34375,1.71875,16.625Q2,16.90625,2,17.34375L2,21.34375L4,21.84375Q6,22.3125,7.84375,21.4375Q10,20.375,12.2812,21.1875L13.3438,21.59375Q13.9688,21.875,14,22.53125L14,30.28125Q13.9688,30.84375,13.5312,31.09375Q13.125,31.37495,12.5938,31.15625L12.3125,30.99995Q11.1875,30.46875,10,30.46875Q8.8125,30.46875,7.71875,30.99995Q6,31.81255,4.15625,31.37495L2,30.84375L2,31.34375Z" fill="#9CA3AF" fill-opacity="1" style="mix-blend-mode:passthrough"/></g></g></g></svg>