<svg xmlns="http://www.w3.org/2000/svg" xmlns:xlink="http://www.w3.org/1999/xlink" fill="none" version="1.1" width="14" height="14" viewBox="0 0 14 14"><defs><clipPath id="master_svg0_2_138"><rect x="0" y="0" width="14" height="14" rx="0"/></clipPath></defs><g clip-path="url(#master_svg0_2_138)"><g transform="matrix(1,0,0,-1,0,28.6015625)"><g><path d="M7.875,27.42578125Q7.875,27.80858125,7.62891,28.05468125Q7.38281,28.30078125,7,28.30078125Q6.61719,28.30078125,6.37109,28.05468125Q6.125,27.80858125,6.125,27.42578125L6.125,20.78125125L4.12891,22.804691249999998Q3.85547,23.05078125,3.5,23.05078125Q3.14453,23.05078125,2.87109,22.804691249999998Q2.625,22.53125125,2.625,22.17578125Q2.625,21.82031125,2.87109,21.54687125L6.37109,18.04687125Q6.64453,17.80078125,7,17.80078125Q7.35547,17.80078125,7.62891,18.04687125L11.1289,21.54687125Q11.375,21.82031125,11.375,22.17578125Q11.375,22.53125125,11.1289,22.804691249999998Q10.8555,23.05078125,10.5,23.05078125Q10.1445,23.05078125,9.87109,22.804691249999998L7.875,20.78125125L7.875,27.42578125ZM1.75,18.67578125Q1.01172,18.64844125,0.519531,18.15625125Q0.0273438,17.66406125,0,16.92578125L0,16.05078125Q0.0273438,15.31250125,0.519531,14.82031225Q1.01172,14.32812505,1.75,14.30078125L12.25,14.30078125Q12.9883,14.32812505,13.4805,14.82031225Q13.9727,15.31250125,14,16.05078125L14,16.92578125Q13.9727,17.66406125,13.4805,18.15625125Q12.9883,18.64844125,12.25,18.67578125L9.48828,18.67578125L8.23047,17.44531125Q7.68359,16.92578125,7,16.92578125Q6.28906,16.92578125,5.76953,17.44531125L4.53906,18.67578125L1.75,18.67578125ZM11.8125,17.14453125Q12.4141,17.08984125,12.4688,16.48828125Q12.4141,15.88672125,11.8125,15.83203125Q11.2109,15.88672125,11.1562,16.48828125Q11.2109,17.08984125,11.8125,17.14453125Z" fill="#4B5563" fill-opacity="1" style="mix-blend-mode:passthrough"/></g></g></g></svg>