<svg xmlns="http://www.w3.org/2000/svg" xmlns:xlink="http://www.w3.org/1999/xlink" fill="none" version="1.1" width="16" height="16" viewBox="0 0 16 16"><defs><clipPath id="master_svg0_5_309"><rect x="0" y="0" width="16" height="16" rx="0"/></clipPath></defs><g clip-path="url(#master_svg0_5_309)"><g transform="matrix(1,0,0,-1,0,29.75)"><g><path d="M14.3438,24.625Q14.375,24.40625,14.375,24.21875Q14.375,22,13.2812,19.875Q12.2188,17.75,10.125,16.34375Q8.0625,14.9375,5.03125,14.875Q2.21875,14.90625,0,16.34375Q0.375,16.3125,0.78125,16.3125Q3.125,16.34375,4.875,17.71875Q3.75,17.75,2.9375,18.375Q2.125,19,1.8125,19.96875Q2.09375,19.9375,2.40625,19.9375Q2.875,19.9375,3.28125,20.03125Q2.125,20.28125,1.40625,21.15625Q0.6875,22.03125,0.65625,23.25L0.65625,23.3125Q1.3125,22.9375,2.125,22.875Q0.75,23.84375,0.65625,25.625Q0.6875,26.5312,1.125,27.2812Q2.34375,25.7812,4.09375,24.875Q5.8125,23.96875,7.875,23.84375Q7.8125,24.21875,7.8125,24.59375Q7.84375,25.9688,8.75,26.9062Q9.6875,27.8438,11.0625,27.875Q12.5312,27.8438,13.4688,26.8438Q14.5938,27.0625,15.5625,27.625Q15.1562,26.4688,14.125,25.8125Q15.0938,25.9375,16,26.3438Q15.3125,25.3438,14.3438,24.625Z" fill="#9CA3AF" fill-opacity="1" style="mix-blend-mode:passthrough"/></g></g></g></svg>