<svg xmlns="http://www.w3.org/2000/svg" xmlns:xlink="http://www.w3.org/1999/xlink" fill="none" version="1.1" width="20" height="20" viewBox="0 0 20 20"><defs><clipPath id="master_svg0_2_168"><rect x="0" y="0" width="20" height="20" rx="0"/></clipPath></defs><g clip-path="url(#master_svg0_2_168)"><g transform="matrix(1,0,0,-1,0,38.359375)"><g><path d="M5.27344,33.3593875L4.25781,30.4296875L5.27344,33.3593875L4.25781,30.4296875L15.7422,30.4296875L14.7266,33.3593875Q14.4141,34.1405875,13.5547,34.1796875L6.44531,34.1796875Q5.58594,34.1405875,5.27344,33.3593875ZM1.5625,30.2343875L2.92969,34.1796875L1.5625,30.2343875L2.92969,34.1796875Q3.32031,35.3124875,4.29688,35.9765875Q5.23438,36.6796875,6.44531,36.6796875L13.5547,36.6796875Q14.7656,36.6796875,15.7031,35.9765875Q16.6797,35.3124875,17.0703,34.1796875L18.4375,30.2343875Q19.1406,29.9608875,19.5703,29.3358875Q20,28.7109375,20,27.9296875L20,22.3046875L20,20.4296875Q20,19.8828125,19.6484,19.5312495Q19.2969,19.1796875,18.75,19.1796875L17.5,19.1796875Q16.9531,19.1796875,16.6016,19.5312495Q16.25,19.8828125,16.25,20.4296875L16.25,22.3046875L3.75,22.3046875L3.75,20.4296875Q3.75,19.8828125,3.39844,19.5312495Q3.04688,19.1796875,2.5,19.1796875L1.25,19.1796875Q0.703125,19.1796875,0.351562,19.5312495Q0,19.8828125,0,20.4296875L0,22.3046875L0,27.9296875Q0,28.7109375,0.429688,29.3358875Q0.859375,29.9608875,1.5625,30.2343875ZM5,26.6796875Q5,27.2265675,4.64844,27.5781275Q4.29688,27.9296875,3.75,27.9296875Q3.20312,27.9296875,2.85156,27.5781275Q2.5,27.2265675,2.5,26.6796875Q2.5,26.1328075,2.85156,25.7812475Q3.20312,25.4296875,3.75,25.4296875Q4.29688,25.4296875,4.64844,25.7812475Q5,26.1328075,5,26.6796875ZM16.25,25.4296875Q16.7969,25.4296875,17.1484,25.7812475Q17.5,26.1328075,17.5,26.6796875Q17.5,27.2265675,17.1484,27.5781275Q16.7969,27.9296875,16.25,27.9296875Q15.7031,27.9296875,15.3516,27.5781275Q15,27.2265675,15,26.6796875Q15,26.1328075,15.3516,25.7812475Q15.7031,25.4296875,16.25,25.4296875Z" fill="#EF4444" fill-opacity="1" style="mix-blend-mode:passthrough"/></g></g></g></svg>