<svg xmlns="http://www.w3.org/2000/svg" xmlns:xlink="http://www.w3.org/1999/xlink" fill="none" version="1.1" width="16" height="16" viewBox="0 0 16 16"><defs><clipPath id="master_svg0_1_84"><rect x="0" y="0" width="16" height="16" rx="0"/></clipPath></defs><g clip-path="url(#master_svg0_1_84)"><g transform="matrix(1,0,0,-1,0,32.6875)"><g><path d="M8,32.34375Q8.4375,32.34375,8.71875,32.06255Q9,31.78125,9,31.34375L9,30.24995Q10.9062,29.90625,12.25,28.59375Q13.5625,27.24995,13.9062,25.34375L15,25.34375Q15.4375,25.34375,15.7188,25.0625Q16,24.78125,16,24.34375Q16,23.90625,15.7188,23.625Q15.4375,23.34375,15,23.34375L13.9062,23.34375Q13.5625,21.4375,12.25,20.09375Q10.9062,18.78125,9,18.4375L9,17.34375Q9,16.90625,8.71875,16.625Q8.4375,16.34375,8,16.34375Q7.5625,16.34375,7.28125,16.625Q7,16.90625,7,17.34375L7,18.4375Q5.09375,18.78125,3.75,20.09375Q2.4375,21.4375,2.09375,23.34375L1,23.34375Q0.5625,23.34375,0.28125,23.625Q0,23.90625,0,24.34375Q0,24.78125,0.28125,25.0625Q0.5625,25.34375,1,25.34375L2.09375,25.34375Q2.4375,27.24995,3.75,28.59375Q5.09375,29.90625,7,30.24995L7,31.34375Q7,31.78125,7.28125,32.06255Q7.5625,32.34375,8,32.34375ZM4,24.34375Q4,23.25,4.53125,22.34375Q5.0625,21.4375,6,20.875Q6.9375,20.34375,8,20.34375Q9.0625,20.34375,10,20.875Q10.9375,21.4375,11.4688,22.34375Q12,23.25,12,24.34375Q12,25.4375,11.4688,26.34375Q10.9375,27.24995,10,27.81255Q9.0625,28.34375,8,28.34375Q6.9375,28.34375,6,27.81255Q5.0625,27.24995,4.53125,26.34375Q4,25.4375,4,24.34375ZM8,26.84375Q9.40625,26.81255,10.1562,25.59375Q10.8438,24.34375,10.1562,23.09375Q9.40625,21.875,8,21.84375Q6.59375,21.875,5.84375,23.09375Q5.15625,24.34375,5.84375,25.59375Q6.59375,26.81255,8,26.84375Z" fill="#4B5563" fill-opacity="1" style="mix-blend-mode:passthrough"/></g></g></g></svg>