<svg width="138.44673082723045" height="172.68999786376952" viewBox="0 0 357 445.3" class="looka-1j8o68f"><defs id="SvgjsDefs1140"><linearGradient id="SvgjsLinearGradient1149"><stop id="SvgjsStop1150" stop-color="#905e26" offset="0"></stop><stop id="SvgjsStop1151" stop-color="#f5ec9b" offset="0.5"></stop><stop id="SvgjsStop1152" stop-color="#905e26" offset="1"></stop></linearGradient><linearGradient id="SvgjsLinearGradient1153"><stop id="SvgjsStop1154" stop-color="#905e26" offset="0"></stop><stop id="SvgjsStop1155" stop-color="#f5ec9b" offset="0.5"></stop><stop id="SvgjsStop1156" stop-color="#905e26" offset="1"></stop></linearGradient><linearGradient id="SvgjsLinearGradient1157"><stop id="SvgjsStop1158" stop-color="#905e26" offset="0"></stop><stop id="SvgjsStop1159" stop-color="#f5ec9b" offset="0.5"></stop><stop id="SvgjsStop1160" stop-color="#905e26" offset="1"></stop></linearGradient><linearGradient id="SvgjsLinearGradient1161"><stop id="SvgjsStop1162" stop-color="#905e26" offset="0"></stop><stop id="SvgjsStop1163" stop-color="#f5ec9b" offset="0.5"></stop><stop id="SvgjsStop1164" stop-color="#905e26" offset="1"></stop></linearGradient></defs><g id="SvgjsG1141" featurekey="rootContainer" transform="matrix(1.05,0,0,1.05,-5.25,19)" fill="url(#SvgjsLinearGradient1149)"><path xmlns="http://www.w3.org/2000/svg" fill-rule="evenodd" d="M5,65 L175,0 L345, 65 L175, 10 z M5,326 L175,406 L345,321 L175, 396 z"></path></g><g id="SvgjsG1142" featurekey="symbolFeature-0" transform="matrix(1.5441330799074462,0,0,1.5441330799074462,102.26393423992181,70.55866920092554)" fill="url(#SvgjsLinearGradient1153)"><path xmlns="http://www.w3.org/2000/svg" d="M16.667,43.33C16.667,69.104,37.559,90,63.333,90v-6.667c-22.093,0-40-17.91-40-40.003H16.667z"></path><path xmlns="http://www.w3.org/2000/svg" d="M63.333,16.667c-14.729,0-26.666,11.94-26.666,26.664C36.667,58.06,48.604,70,63.333,70v6.667  C44.922,76.667,30,61.741,30,43.33C30,24.922,44.922,10,63.333,10V16.667z"></path><path xmlns="http://www.w3.org/2000/svg" d="M63.333,43.333v20c-11.048,0-20-8.955-20-20.003c0-11.045,8.952-19.997,20-19.997c11.049,0,20,8.952,20,19.997  L63.333,43.333z"></path></g><g id="SvgjsG1143" featurekey="nameFeature-0" transform="matrix(1.7551625657958316,0,0,1.7551625657958316,1.7466693520377436,223.0689813758073)" fill="url(#SvgjsLinearGradient1157)"><path d="M5.6417 23.824 l4.3048 0 l0 -7.6738 l-5.4011 0 l1.0963 0.82888 l0 6.8449 z M13.61 14.599 l0 10.802 c0 1.4973 -1.1497 2.6471 -2.6471 2.6471 l-0.50802 0 l3.1551 11.898 l-3.7968 0 l-3.1551 -11.898 l-2.1123 0 l1.0963 0.82888 l0 11.07 l-3.6898 0 l0 -23.797 l0 -3.3957 l-0.66845 -0.82888 l9.6791 0.026738 c1.4973 0 2.6471 1.1497 2.6471 2.6471 z M18.716539572192513 35.8021 l4.3316 0 l0 -19.545 l-5.4011 0 l1.0695 0.82888 l0 18.717 z M26.710839572192512 14.678999999999998 l0 22.701 c0 1.4973 -1.1497 2.6471 -2.6471 2.6471 l-6.3636 0 c-1.4973 0 -2.6471 -1.1497 -2.6471 -2.6471 l0 -22.701 c0 -1.4171 1.1497 -2.6471 2.6471 -2.6471 l6.3636 0 c1.4973 0 2.6471 1.2299 2.6471 2.6471 z M32.513343850267376 31.604300000000002 l3.7701 0 l-1.8717 -15.348 z M27.780743850267378 40.053476 l3.3422 -27.193 l-0.66845 -0.80214 l7.139 0 l3.4492 27.995 l-3.7166 0 l-0.50802 -4.2246 l-5.9091 -0.026738 l0.9893 0.7754 l-0.42781 3.4759 l-3.6898 0 z M46.0427935828877 35.8021 l4.3048 0 l0 -19.545 l-5.4011 0 l1.0963 0.82888 l0 18.717 z M54.037593582887695 14.678999999999998 l0 22.701 c0 1.4973 -1.1765 2.6471 -2.6738 2.6471 l-9.0107 0 l0 -4.2246 l0 -22.941 l-0.66845 -0.82888 l9.6791 0 c1.4706 0 2.6738 1.2299 2.6738 2.6471 z M65.40108716577541 16.203 l-3.984 0 l0 -4.2513 l11.658 0 l0 4.2513 l-5.0802 0 l1.0963 0.80214 l0 22.968 l-3.6898 0 l0 -23.77 z M78.28875882352942 23.824 l4.3048 0 l0 -7.6738 l-5.4011 0 l1.0963 0.82888 l0 6.8449 z M86.25705882352942 14.599 l0 10.802 c0 1.4973 -1.1497 2.6471 -2.6471 2.6471 l-0.50802 0 l3.1551 11.898 l-3.7968 0 l-3.1551 -11.898 l-2.1123 0 l1.0963 0.82888 l0 11.07 l-3.6898 0 l0 -23.797 l0 -3.3957 l-0.66845 -0.82888 l9.6791 0.026738 c1.4973 0 2.6471 1.1497 2.6471 2.6471 z M91.41708716577541 39.946524 l-3.6898 0 l0 -27.166 l-0.66845 -0.82888 l4.3583 0 l0 27.995 z M97.21923368983958 23.85 l4.3048 0 l0 -7.6738 l-5.4011 0 l1.0963 0.82888 l0 6.8449 z M105.18713368983958 14.626000000000001 l0 10.802 c0 1.4171 -1.1497 2.6471 -2.6471 2.6471 l-6.4171 0 l1.0963 0.82888 l0 11.07 l-3.6898 0 l0 -27.193 l-0.66845 -0.82888 l9.6791 0 c1.4973 0 2.6471 1.1765 2.6471 2.6738 z M116.49730855614973 23.85 l4.3048 0 l0 -7.6738 l-5.4011 0 l1.0963 0.82888 l0 6.8449 z M124.46520855614973 14.626000000000001 l0 10.802 c0 1.4171 -1.1497 2.6471 -2.6471 2.6471 l-6.4171 0 l1.0963 0.82888 l0 11.07 l-3.6898 0 l0 -27.193 l-0.66845 -0.82888 l9.6791 0 c1.4973 0 2.6471 1.1765 2.6471 2.6738 z M124.73261550802138 12.032 l4.3583 0 l0 23.77 l6.1497 0 l0 4.2246 l-9.8396 0 l0 -0.026738 l0 -4.1979 l0 -22.968 z M140.24061657754012 31.604300000000002 l3.7701 0 l-1.8717 -15.348 z M135.5080165775401 40.053476 l3.3422 -27.193 l-0.66845 -0.80214 l7.139 0 l3.4492 27.995 l-3.7166 0 l-0.50802 -4.2246 l-5.9091 -0.026738 l0.9893 0.7754 l-0.42781 3.4759 l-3.6898 0 z M149.41176631016043 12.004999999999999 l5.2406 0 l3.4225 15.267 l0 -15.241 l3.6631 0 l0 27.968 l-4.5722 0 l-3.3957 -15.187 l0 15.214 l-3.6898 0 l0 -27.193 z M163.2085577540107 12.004999999999999 l5.2406 0 l3.4225 15.267 l0 -15.241 l3.6631 0 l0 27.968 l-4.5722 0 l-3.3957 -15.187 l0 15.214 l-3.6898 0 l0 -27.193 z M177.67375294117647 12.861 l-0.66845 -0.82888 l10.508 0 l0 4.2246 l-7.246 0 l1.0963 0.82888 l0 6.8182 l4.3316 0 l0 4.2513 l-5.4278 0 l1.0963 0.80214 l0 6.8449 l6.1497 0 l0 4.2246 l-9.8396 0 l0 -4.2246 l0 -7.6471 l0 -4.2513 l0 -11.043 z M192.7272614973262 23.824 l4.3048 0 l0 -7.6738 l-5.4011 0 l1.0963 0.82888 l0 6.8449 z M200.6955614973262 14.599 l0 10.802 c0 1.4973 -1.1497 2.6471 -2.6471 2.6471 l-0.50802 0 l3.1551 11.898 l-3.7968 0 l-3.1551 -11.898 l-2.1123 0 l1.0963 0.82888 l0 11.07 l-3.6898 0 l0 -23.797 l0 -3.3957 l-0.66845 -0.82888 l9.6791 0.026738 c1.4973 0 2.6471 1.1497 2.6471 2.6471 z"></path></g><g id="SvgjsG1144" featurekey="sloganFeature-0" transform="matrix(1.0680444419628066,0,0,1.0680444419628066,156.9338811581058,304.98966668527896)" fill="url(#SvgjsLinearGradient1161)"><path d="M5.26 20 c-0.1 0 -0.2 -0.06 -0.24 -0.16 l-4 -12 c-0.04 -0.08 -0.02 -0.16 0.02 -0.24 c0.06 -0.06 0.14 -0.1 0.22 -0.1 l2.8 0 c0.1 0 0.2 0.06 0.24 0.18 l2.38 7.82 l2.4 -7.82 c0.04 -0.12 0.14 -0.18 0.24 -0.18 l2.68 0 c0.08 0 0.16 0.04 0.22 0.1 c0.04 0.08 0.06 0.16 0.02 0.24 l-4.06 12 c-0.04 0.1 -0.12 0.16 -0.24 0.16 l-2.68 0 z M14.4995 20 c-0.08 0 -0.16 -0.04 -0.2 -0.12 c-0.06 -0.06 -0.06 -0.16 -0.04 -0.24 l4.66 -11.98 c0.04 -0.1 0.14 -0.16 0.24 -0.16 l2.68 0 c0.1 0 0.2 0.06 0.24 0.16 l4.58 11.98 c0.02 0.08 0.02 0.16 -0.04 0.24 c-0.04 0.08 -0.12 0.12 -0.2 0.12 l-2.78 0 c-0.1 0 -0.2 -0.06 -0.24 -0.16 l-0.74 -1.84 l-4.5 0.02 l-0.74 1.82 c-0.04 0.1 -0.14 0.16 -0.24 0.16 l-2.68 0 z M18.9795 15.5 l2.88 0 l-1.44 -4.24 z M31.319000000000003 20 c-0.14 0 -0.26 -0.12 -0.26 -0.26 l0 -11.98 c0 -0.14 0.12 -0.26 0.26 -0.26 l2.36 0 c0.08 0 0.16 0.04 0.22 0.1 l4.6 7.1 l0 -6.94 c0 -0.14 0.12 -0.26 0.26 -0.26 l2.46 0 c0.14 0 0.26 0.12 0.26 0.26 l0 11.98 c0 0.14 -0.12 0.26 -0.26 0.26 l-2.36 0 c-0.08 0 -0.16 -0.04 -0.22 -0.1 l-4.58 -7.06 l0 6.9 c0 0.14 -0.12 0.26 -0.26 0.26 l-2.48 0 z"></path></g></svg>